<?xml version="1.0" encoding="UTF-8"?>
<svg id="Terapolis_logotype-baseline-noir" xmlns="http://www.w3.org/2000/svg" xmlns:xlink="http://www.w3.org/1999/xlink" version="1.1" viewBox="0 0 2435.8 630.6">
  <!-- Generator: Adobe Illustrator 29.1.0, SVG Export Plug-In . SVG Version: 2.1.0 Build 142)  -->
  <defs>
    <style>
      .st0 {
        fill: none;
      }

      .st1 {
        fill: #063431;
      }

      .st2 {
        clip-path: url(#clippath);
      }
    </style>
    <clipPath id="clippath">
      <rect class="st0" width="2435.8" height="630.6"/>
    </clipPath>
  </defs>
  <g id="Groupe_2321">
    <path id="Tracé_34477" class="st1" d="M14.4,450.1h26.1v118.2h73.4v22.1H14.4v-140.3Z"/>
  </g>
  <g class="st2">
    <g id="Groupe_2352">
      <g id="Groupe_2322">
        <path id="Tracé_34478" class="st1" d="M142.5,444.8c3.1,3.1,4.8,7.4,4.6,11.8,0,2.4-.3,4.7-.9,7-.6,2.3-1.8,5.7-3.5,10.2l-10.4,28.5h-16.2l8-30.9c-2.9-1-5.3-2.9-6.9-5.5-1.7-2.8-2.6-6-2.5-9.3-.2-4.4,1.5-8.7,4.6-11.8,3.1-3.1,7.3-4.7,11.6-4.6,4.3-.1,8.6,1.5,11.6,4.6"/>
      </g>
      <g id="Groupe_2323">
        <path id="Tracé_34479" class="st1" d="M266.7,544.9h-84c1.2,7.5,5.4,14.2,11.5,18.7,6.2,4.6,13.9,6.9,23.2,6.9,11.8,0,21.4-3.9,29.1-11.6l13.4,15.4c-4.9,5.8-11.2,10.3-18.2,13-7.9,3-16.4,4.5-24.9,4.4-11.8,0-22.1-2.3-31.1-7-8.6-4.4-15.9-11.2-20.7-19.5-4.9-8.6-7.5-18.4-7.3-28.4-.1-9.9,2.3-19.6,7.1-28.2,4.6-8.2,11.5-15,19.7-19.5,8.7-4.8,18.5-7.2,28.5-7,9.8-.2,19.4,2.2,28,6.9,8.1,4.5,14.8,11.3,19.2,19.4,4.6,8.4,6.9,18,6.9,29,0,1.7-.1,4.2-.4,7.4M192.7,509.3c-5.5,4.7-8.9,11.1-10.1,18.9h60.7c-.8-7.3-4.3-14-9.8-18.8-5.5-4.8-12.3-7.2-20.4-7.2s-14.8,2.4-20.3,7.1M222.7,441.2h29.5l-34.9,27.5h-21.6l27.1-27.5Z"/>
      </g>
      <g id="Groupe_2324">
        <path id="Tracé_34480" class="st1" d="M384.4,493.9c8.1,7.9,12.2,19.6,12.2,35.1v61.3h-25.1v-58.1c0-9.4-2.2-16.4-6.6-21.1-4.4-4.7-10.7-7.1-18.8-7.1-9.2,0-16.5,2.8-21.8,8.3-5.3,5.5-8,13.5-8,24v54.1h-25.1v-107h23.9v13.8c4.2-5,9.6-8.8,15.6-11.2,6.8-2.6,14-3.9,21.2-3.8,13.5,0,24.3,3.9,32.5,11.8"/>
      </g>
      <g id="Groupe_2325">
        <path id="Tracé_34481" class="st1" d="M529.7,544.9h-84c1.2,7.5,5.4,14.2,11.5,18.7,6.2,4.6,13.9,6.9,23.1,6.9,11.8,0,21.4-3.9,29.1-11.6l13.4,15.4c-4.9,5.8-11.2,10.3-18.2,13-7.9,3-16.4,4.5-24.9,4.4-11.8,0-22.1-2.3-31.1-7-8.6-4.4-15.9-11.2-20.7-19.5-4.9-8.6-7.5-18.4-7.3-28.4-.1-9.9,2.3-19.6,7.1-28.2,4.6-8.2,11.5-15,19.7-19.5,8.7-4.8,18.5-7.2,28.5-7,9.8-.2,19.4,2.2,28,6.9,8.1,4.5,14.8,11.3,19.2,19.4,4.6,8.4,6.9,18,6.9,29,0,1.7-.1,4.2-.4,7.4M455.6,509.3c-5.5,4.7-8.9,11.1-10.1,18.9h60.7c-.8-7.3-4.3-14-9.8-18.8-5.5-4.8-12.3-7.2-20.4-7.2-8,0-14.8,2.4-20.3,7.1"/>
      </g>
      <g id="Groupe_2326">
        <path id="Tracé_34482" class="st1" d="M616.1,482.1v23.8c-1.9-.4-3.9-.6-5.8-.6-9.8,0-17.4,2.8-22.8,8.5-5.5,5.7-8.2,13.9-8.2,24.6v51.9h-25.1v-107h23.9v15.6c7.2-11.2,19.9-16.8,38.1-16.8"/>
      </g>
      <g id="Groupe_2327">
        <path id="Tracé_34483" class="st1" d="M742.6,483.3v90.8c0,37.7-19.2,56.5-57.7,56.5-9.9,0-19.7-1.3-29.3-3.9-9.2-2.6-16.8-6.4-22.9-11.3l11.2-18.8c5.3,4.2,11.3,7.4,17.7,9.3,7,2.3,14.4,3.5,21.7,3.5,11.8,0,20.4-2.7,25.9-8s8.2-13.5,8.2-24.5v-5.6c-4.3,4.7-9.7,8.3-15.6,10.6-6.5,2.5-13.3,3.7-20.2,3.6-9.6.1-19-2.1-27.6-6.5-8.1-4.2-14.8-10.5-19.4-18.3-4.8-8.2-7.3-17.6-7.1-27.1,0-10.2,2.4-19.1,7.1-27,4.7-7.7,11.4-14,19.4-18.1,8.5-4.3,18-6.6,27.6-6.4,7.2,0,14.4,1.2,21.2,3.8,6.2,2.4,11.7,6.4,15.9,11.6v-14.2h23.9ZM708.8,555.8c6.1-5.7,9.1-13.1,9.1-22.1,0-9-3-16.2-9.1-21.8-6.1-5.6-13.9-8.4-23.4-8.4-9.6,0-17.5,2.8-23.5,8.4-6.1,5.6-9.1,12.9-9.1,21.8,0,9.1,3,16.5,9.1,22.1,6.1,5.7,13.9,8.5,23.5,8.5,9.5,0,17.3-2.8,23.3-8.5"/>
      </g>
      <g id="Groupe_2328">
        <path id="Tracé_34484" class="st1" d="M776.6,461.4c-3-2.7-4.7-6.7-4.6-10.7,0-4.1,1.6-8,4.6-10.7,3.1-2.9,7.2-4.4,11.4-4.3,4.2-.1,8.3,1.3,11.4,4.1,3,2.6,4.7,6.4,4.6,10.3,0,4.2-1.5,8.2-4.5,11.1-3.1,3-7.2,4.7-11.5,4.5-4.2.1-8.3-1.4-11.4-4.3M775.4,483.3h25v107h-25.1v-107Z"/>
      </g>
      <g id="Groupe_2329">
        <path id="Tracé_34485" class="st1" d="M933.6,544.9h-84c1.2,7.5,5.4,14.2,11.5,18.7,6.2,4.6,13.9,6.9,23.1,6.9,11.8,0,21.4-3.9,29.1-11.6l13.4,15.4c-4.9,5.8-11.2,10.3-18.2,13-7.9,3-16.4,4.5-24.9,4.4-11.8,0-22.1-2.3-31.1-7-8.6-4.4-15.9-11.2-20.7-19.5-4.9-8.6-7.5-18.4-7.3-28.4-.1-9.9,2.3-19.6,7.1-28.2,4.6-8.2,11.5-15,19.7-19.5,8.7-4.8,18.5-7.2,28.5-7,9.8-.2,19.4,2.2,28,6.9,8.1,4.5,14.8,11.3,19.2,19.4,4.6,8.4,6.9,18,6.9,29,0,1.7-.1,4.2-.4,7.4M859.5,509.3c-5.5,4.7-8.9,11.1-10.1,18.9h60.7c-.8-7.3-4.3-14-9.8-18.8-5.5-4.8-12.3-7.2-20.4-7.2-8,0-14.8,2.4-20.3,7.1"/>
      </g>
      <g id="Groupe_2330">
        <path id="Tracé_34486" class="st1" d="M1118.1,441.6v148.7h-24.1v-13.8c-4.1,5-9.3,9-15.3,11.4-6.4,2.6-13.2,3.9-20.1,3.8-9.7.1-19.2-2.2-27.8-6.8-8.2-4.5-14.9-11.2-19.3-19.3-4.7-8.3-7-17.9-7-28.8,0-10.8,2.3-20.4,7-28.7,4.5-8.1,11.2-14.8,19.3-19.2,8.5-4.6,18.1-7,27.8-6.8,6.7,0,13.3,1.1,19.4,3.6,5.8,2.4,11,6.1,15,10.8v-54.9h25.1ZM1077.9,566.2c4.8-2.8,8.8-6.8,11.4-11.7,2.9-5.4,4.3-11.5,4.2-17.6.1-6.1-1.3-12.2-4.2-17.6-2.6-4.9-6.6-9-11.4-11.7-5-2.8-10.6-4.2-16.2-4.1-5.7,0-11.3,1.3-16.2,4.1-4.8,2.8-8.8,6.8-11.4,11.7-2.9,5.4-4.3,11.5-4.2,17.6-.1,6.1,1.3,12.2,4.2,17.6,2.6,4.9,6.6,9,11.4,11.7,5,2.8,10.6,4.2,16.2,4.1,5.7,0,11.3-1.3,16.2-4.1"/>
      </g>
      <g id="Groupe_2331">
        <path id="Tracé_34487" class="st1" d="M1251.2,544.9h-84c1.2,7.5,5.4,14.2,11.5,18.7,6.2,4.6,13.9,6.9,23.1,6.9,11.8,0,21.4-3.9,29.1-11.6l13.4,15.4c-4.9,5.8-11.2,10.3-18.2,13-7.9,3-16.4,4.5-24.9,4.4-11.8,0-22.1-2.3-31.1-7-8.6-4.4-15.9-11.2-20.7-19.5-4.9-8.6-7.5-18.4-7.3-28.4-.1-9.9,2.3-19.6,7.1-28.2,4.6-8.2,11.5-15,19.7-19.5,8.7-4.8,18.5-7.2,28.5-7,9.8-.2,19.4,2.2,28,6.9,8.1,4.5,14.8,11.3,19.2,19.4,4.6,8.4,6.9,18,6.9,29,0,1.7-.1,4.2-.4,7.4M1177.2,509.3c-5.5,4.7-8.9,11.1-10.1,18.9h60.7c-.8-7.3-4.3-14-9.8-18.8-5.5-4.8-12.3-7.2-20.4-7.2-8,0-14.8,2.4-20.3,7.1"/>
      </g>
      <g id="Groupe_2332">
        <path id="Tracé_34488" class="st1" d="M1283.3,588.3c-8.3-2.3-14.9-5.1-19.8-8.6l9.6-19c5.3,3.4,11.2,6.1,17.3,7.7,6.5,1.9,13.2,2.9,19.9,2.9,15,0,22.4-3.9,22.5-11.8,0-3.7-1.9-6.3-5.7-7.8s-9.9-2.9-18.3-4.2c-7.3-1-14.5-2.5-21.5-4.6-5.5-1.7-10.5-4.9-14.4-9.1-4.1-4.3-6.1-10.4-6.1-18.1s4.2-18.3,12.7-24.4c8.5-6.1,19.9-9.1,34.4-9.1,7.4,0,14.8.8,22,2.5,6.3,1.3,12.4,3.6,18,6.7l-9.6,19c-9.3-5.4-19.9-8.2-30.7-8-7.4,0-12.9,1.1-16.7,3.3s-5.7,5.1-5.7,8.7c0,4,2,6.8,6.1,8.5,4.1,1.7,10.4,3.2,18.9,4.7,7.1,1,14.2,2.6,21,4.6,5.4,1.7,10.3,4.7,14.1,8.8,3.9,4.1,5.9,10,5.9,17.6,0,10-4.3,18-13,24.1s-20.5,9-35.5,9c-8.6,0-17.2-1.1-25.5-3.4"/>
      </g>
      <g id="Groupe_2333">
        <path id="Tracé_34489" class="st1" d="M1498.5,584.5c-3.2,2.5-6.8,4.4-10.7,5.4-4.3,1.2-8.8,1.8-13.3,1.8-11.8,0-20.8-3.1-27.3-9.2-6.4-6.1-9.6-15.1-9.6-26.9v-51.5h-17.6v-20h17.6v-24.5h25.1v24.5h28.7v20h-28.7v50.9c0,5.2,1.3,9.2,3.8,11.9,2.5,2.7,6.2,4.1,11,4.1,5.6,0,10.3-1.5,14-4.4l7,17.8Z"/>
      </g>
      <g id="Groupe_2334">
        <path id="Tracé_34490" class="st1" d="M1615.8,544.9h-84c1.2,7.5,5.4,14.2,11.5,18.7,6.2,4.6,13.9,6.9,23.1,6.9,11.8,0,21.4-3.9,29.1-11.6l13.4,15.4c-4.9,5.8-11.2,10.3-18.2,13-7.9,3-16.4,4.5-24.9,4.4-11.8,0-22.1-2.3-31.1-7-8.6-4.4-15.9-11.2-20.7-19.5-4.9-8.6-7.5-18.4-7.3-28.4-.1-9.9,2.3-19.6,7.1-28.2,4.6-8.2,11.5-15,19.7-19.5,8.7-4.8,18.5-7.2,28.5-7,9.8-.2,19.4,2.2,28,6.9,8.1,4.5,14.8,11.3,19.2,19.4,4.6,8.4,6.9,18,6.9,29,0,1.7-.1,4.2-.4,7.4M1541.7,509.3c-5.5,4.7-8.9,11.1-10.1,18.9h60.7c-.8-7.3-4.3-14-9.8-18.8-5.5-4.8-12.3-7.2-20.4-7.2-8,0-14.8,2.4-20.3,7.1"/>
      </g>
      <g id="Groupe_2335">
        <path id="Tracé_34491" class="st1" d="M1702.2,482.1v23.8c-1.9-.4-3.9-.6-5.8-.6-9.8,0-17.4,2.8-22.8,8.5-5.5,5.7-8.2,13.9-8.2,24.6v51.9h-25.1v-107h23.9v15.6c7.2-11.2,19.9-16.8,38.1-16.8"/>
      </g>
      <g id="Groupe_2336">
        <path id="Tracé_34492" class="st1" d="M1785.4,482.1v23.8c-1.9-.4-3.9-.6-5.8-.6-9.8,0-17.4,2.8-22.8,8.5-5.5,5.7-8.2,13.9-8.2,24.6v51.9h-25.1v-107h23.9v15.6c7.2-11.2,19.9-16.8,38.1-16.8"/>
      </g>
      <g id="Groupe_2337">
        <path id="Tracé_34493" class="st1" d="M1807.8,461.4c-3-2.7-4.7-6.7-4.6-10.7,0-4.1,1.6-8,4.6-10.7,3.1-2.9,7.2-4.4,11.4-4.3,4.2-.1,8.3,1.3,11.4,4.1,3,2.6,4.7,6.4,4.6,10.3,0,4.2-1.5,8.2-4.5,11.1-3.1,3-7.2,4.7-11.5,4.5-4.2.1-8.3-1.4-11.4-4.3M1806.6,483.3h25v107h-25.1v-107Z"/>
      </g>
      <g id="Groupe_2338">
        <path id="Tracé_34494" class="st1" d="M1928.9,584.5c-3.2,2.5-6.8,4.4-10.7,5.4-4.3,1.2-8.8,1.8-13.3,1.8-11.8,0-20.8-3.1-27.3-9.2-6.4-6.1-9.6-15.1-9.6-26.9v-51.5h-17.6v-20h17.6v-24.5h25.1v24.5h28.7v20h-28.7v50.9c0,5.2,1.3,9.2,3.8,11.9,2.5,2.7,6.2,4.1,11,4.1,5.6,0,10.3-1.5,14-4.4l7,17.8Z"/>
      </g>
      <g id="Groupe_2339">
        <path id="Tracé_34495" class="st1" d="M1964.7,584.7c-8.5-4.5-15.5-11.2-20.3-19.5-4.9-8.6-7.5-18.4-7.3-28.4-.2-9.9,2.4-19.7,7.3-28.3,4.8-8.2,11.9-15,20.3-19.4,9-4.8,19.1-7.2,29.3-7,10.3-.2,20.4,2.2,29.5,7,8.5,4.5,15.5,11.2,20.3,19.4,5,8.6,7.5,18.3,7.3,28.3.2,9.9-2.4,19.7-7.3,28.4-4.8,8.3-11.9,15.1-20.3,19.5-9.1,4.8-19.2,7.2-29.5,7-10.2.2-20.3-2.3-29.3-7M2016.9,561.1c6-6.1,9-14.2,9-24.3s-3-18.1-9-24.3c-6-6.1-13.6-9.2-22.8-9.2s-16.8,3.1-22.8,9.2c-5.9,6.1-8.9,14.2-8.9,24.3s3,18.1,8.9,24.3c5.9,6.1,13.5,9.2,22.7,9.2s16.8-3.1,22.9-9.2"/>
      </g>
      <g id="Groupe_2340">
        <path id="Tracé_34496" class="st1" d="M2076.4,461.4c-3-2.7-4.7-6.7-4.6-10.7,0-4.1,1.6-8,4.6-10.7,3.1-2.9,7.2-4.4,11.4-4.3,4.2-.1,8.3,1.3,11.4,4.1,3,2.6,4.7,6.4,4.6,10.3,0,4.2-1.5,8.2-4.5,11.1-3.1,3-7.2,4.7-11.5,4.5-4.2.1-8.3-1.4-11.4-4.3M2075.2,483.3h25v107h-25.1v-107Z"/>
      </g>
      <g id="Groupe_2341">
        <path id="Tracé_34497" class="st1" d="M2195,482.1v23.8c-1.9-.4-3.9-.6-5.8-.6-9.8,0-17.4,2.8-22.8,8.5-5.5,5.7-8.2,13.9-8.2,24.6v51.9h-25.1v-107h23.9v15.6c7.2-11.2,19.9-16.8,38.1-16.8"/>
      </g>
      <g id="Groupe_2342">
        <path id="Tracé_34498" class="st1" d="M2315.5,544.9h-84c1.2,7.5,5.4,14.2,11.5,18.7,6.2,4.6,13.9,6.9,23.2,6.9,11.8,0,21.4-3.9,29.1-11.6l13.4,15.4c-4.9,5.8-11.2,10.3-18.2,13-7.9,3-16.4,4.5-24.9,4.4-11.8,0-22.1-2.3-31.1-7-8.6-4.4-15.9-11.2-20.7-19.5-4.9-8.6-7.5-18.4-7.3-28.4-.1-9.9,2.3-19.6,7.1-28.2,4.6-8.2,11.5-15,19.7-19.5,8.7-4.8,18.5-7.2,28.5-7,9.8-.2,19.4,2.2,28,6.9,8.1,4.5,14.8,11.3,19.2,19.4,4.6,8.4,6.9,18,6.9,29,0,1.7-.1,4.2-.4,7.4M2241.4,509.3c-5.5,4.7-8.9,11.1-10.1,18.9h60.7c-.8-7.3-4.3-14-9.8-18.8-5.5-4.8-12.3-7.2-20.4-7.2-8,0-14.8,2.4-20.3,7.1"/>
      </g>
      <g id="Groupe_2343">
        <path id="Tracé_34499" class="st1" d="M2347.6,588.3c-8.3-2.3-14.9-5.1-19.8-8.6l9.6-19c5.3,3.4,11.2,6.1,17.3,7.7,6.5,1.9,13.2,2.9,19.9,2.9,15,0,22.4-3.9,22.4-11.8,0-3.7-1.9-6.3-5.7-7.8s-9.9-2.9-18.3-4.2c-7.3-1-14.5-2.5-21.5-4.6-5.5-1.7-10.5-4.9-14.4-9.1-4.1-4.3-6.1-10.4-6.1-18.1,0-10.2,4.2-18.3,12.7-24.4,8.5-6.1,19.9-9.1,34.4-9.1,7.4,0,14.8.8,22,2.5,6.3,1.3,12.4,3.6,18,6.7l-9.6,19c-9.3-5.4-19.9-8.2-30.7-8-7.4,0-12.9,1.1-16.7,3.3s-5.7,5.1-5.7,8.7c0,4,2,6.8,6.1,8.5,4.1,1.7,10.4,3.2,18.9,4.7,7.1,1,14.2,2.6,21,4.6,5.4,1.7,10.3,4.7,14.1,8.8,3.9,4.1,5.9,10,5.9,17.6,0,10-4.3,18-13,24.1s-20.5,9-35.5,9c-8.6,0-17.2-1.1-25.5-3.4"/>
      </g>
      <g id="Groupe_2344">
        <path id="Tracé_34500" class="st1" d="M613.8,111.1c-9.6-22.6-22.9-41.9-39.9-57.7-17-15.8-37.2-28.1-60.7-36.7-23.5-8.6-48.9-12.9-76.3-12.9-27.4,0-52.8,4.3-76,12.9s-43.4,20.8-60.4,36.7c-17.2,16.2-30.8,35.9-39.9,57.7-9.6,22.6-14.4,48-14.4,76,0,27.7,4.8,53.1,14.4,76,9.1,22.2,22.6,42.3,39.9,58.9,17.4,16.6,37.9,29.5,60.4,37.9,23.3,8.9,48.6,13.4,76,13.4,27.4,0,52.8-4.5,76.3-13.4,23.4-8.9,43.7-21.5,60.7-37.9,17.2-16.7,30.8-36.7,39.9-58.9.1-.3-.1-1-1-1h-98.8c-2.5,0-3.8,2.2-4.7,3.2-8.9,9.6-19.7,17.3-31.7,22.6-12.2,5.4-25.8,8.2-40.6,8.2-14.9,0-28.4-2.7-40.6-8.2-11.9-5.3-22.6-12.9-31.4-22.6-9-10-16-21.7-20.6-34.4-5.1-14.1-7.6-28.9-7.4-43.8-.1-14.5,2.3-28.9,7.2-42.6,4.4-12.6,11.4-24.2,20.5-33.9,9-9.5,19.8-17,31.7-22.3,12.2-5.4,25.8-8.2,40.6-8.2,14-.2,28,2.6,40.9,8.2,12,5.2,22.8,12.8,31.7,22.3,10.4,11.2,18.2,25.2,23.2,41.8h0c0,.1-92.4.1-92.4.1v-31.6c0-1.5-1.2-2.7-2.6-2.7-.7,0-1.4.3-1.9.8l-63.3,63.3c-1,1-1,2.7,0,3.7,0,0,0,0,0,0l63.3,63.3c1,1,2.7,1,3.7,0,.5-.5.8-1.2.8-1.9v-32.9h181.1c2.8,0,5.2-2.1,5.5-4.9.8-7.5,1.3-15,1.3-22.5,0-28.1-4.8-53.4-14.4-76"/>
      </g>
      <g id="Groupe_2345">
        <path id="Tracé_34501" class="st1" d="M2066.2,82.6V22.6c0-5.2,4.2-9.4,9.4-9.4h75.8v69.4h-85.2Z"/>
      </g>
      <g id="Groupe_2346">
        <path id="Tracé_34502" class="st1" d="M2381.8,104.4c-7.6-9.5-17.4-17.1-28.5-22-11.7-5.4-23-8.2-33.9-8.2-5.7,0-11.4.5-17.1,1.5-5.5.9-10.8,2.8-15.6,5.7-4.6,2.8-8.6,6.5-11.6,10.9-3.1,4.5-4.7,10.2-4.7,17.1,0,5.9,1.2,10.9,3.7,14.9,2.8,4.3,6.5,7.8,10.9,10.4,5.4,3.3,11.1,6,17.1,8.2,6.6,2.5,14,5,22.3,7.7,11.9,4,24.3,8.3,37.1,13.1,12.6,4.6,24.4,11.1,35.2,19.1,10.6,8,19.5,18,26.3,29.5,6.9,11.7,10.4,26.3,10.4,43.8,0,20.1-3.7,37.6-11.1,52.3-7.1,14.3-17.3,26.7-30,36.4-12.9,9.7-27.5,17-43.1,21.3-16.3,4.6-33.1,7-50,6.9-24.9,0-49.5-4.4-72.8-13.1-23.5-8.8-42.9-21.2-58.4-37.4l55.5-56.5c8.6,10.6,19.9,19.4,33.9,26.5,14,7.1,28,10.6,41.9,10.7,6.2,0,12.3-.6,18.3-2,5.6-1.1,10.8-3.3,15.6-6.4,4.5-3,8.1-7.1,10.7-11.9,2.6-5,4-10.9,4-17.8.2-6-1.6-11.9-5-16.8-3.8-5.1-8.6-9.4-14.1-12.6-7.2-4.3-14.8-7.8-22.8-10.4-9.1-3.1-19.4-6.5-31-10.1-11.2-3.6-22.2-7.9-32.9-12.9-10.5-4.8-20.2-11.3-28.7-19.1-8.6-8-15.5-17.6-20.3-28.2-5.1-11.1-7.7-24.5-7.7-40.4,0-19.5,4-36.1,11.9-50,7.7-13.6,18.3-25.3,31.2-34.2,13.2-9.1,28-15.7,43.6-19.6,16-4.1,32.5-6.2,49-6.2,19.8,0,40,3.6,60.7,10.9,20.1,6.9,38.5,17.9,54.2,32.2l-54,57Z"/>
      </g>
      <g id="Groupe_2347">
        <path id="Tracé_34503" class="st1" d="M282.3,33c.2-.2.3-.3.5-.4V13.3H0v72.3h99.1v269c0,5.2,4.2,9.4,9.4,9.4h75.3V85.6h58.9c10.1-19.7,23.5-37.5,39.6-52.6"/>
      </g>
      <g id="Groupe_2348">
        <path id="Tracé_34504" class="st1" d="M1097.9,13.3h-82.2l-128.2,305.6-64.1-105c22.8-6.9,40.6-18.5,53.5-34.7,12.9-16.2,19.3-36.2,19.3-59.9,0-20.1-3.8-37-11.4-50.5-7.3-13.2-17.8-24.5-30.5-32.7-13.2-8.4-27.8-14.4-43.1-17.6-16.2-3.5-32.7-5.2-49.3-5.2h-133.7v63c4.5,7.7,8.5,15.7,12,23.9,11,25.9,16.6,55.2,16.6,86.9s-5.6,60.5-16.5,86.7c-3.5,8.4-7.5,16.5-12.1,24.4v65.7h73.3c5.2,0,9.4-4.2,9.4-9.4v-129.8h28.9l76.1,139.2h138.3c3.9,0,7.4-2.4,8.8-6.1l23.5-62.8h135.7l27.2,68.8h94.1L1097.9,13.3ZM806.7,142.5c-3.7,5.5-8.7,9.9-14.7,12.9-6.3,3.1-13,5.2-19.9,6.2-7.1,1.1-14.2,1.7-21.4,1.7h-40.3v-81.7h45.3c6.6,0,13.1.5,19.7,1.5,6.4.9,12.6,2.8,18.4,5.7,5.4,2.8,10,6.9,13.4,11.9,3.5,5.1,5.2,11.8,5.2,20.1,0,8.9-1.9,16.2-5.7,21.8M1010.7,227.2l44.6-120.3,43.6,120.3h-88.2Z"/>
      </g>
      <g id="Groupe_2349">
        <path id="Tracé_34505" class="st1" d="M1476.9,68.9c-6.7-12.7-16.5-23.6-28.4-31.7-12.4-8.4-26.9-14.5-43.6-18.3-17.6-3.9-35.7-5.8-53.7-5.7h-119.4c-5.2,0-9.4,4.2-9.4,9.4h0v194.6l60.9,146.7h23.8v-132.2h42.1c17.7,0,35.3-1.9,52.5-5.9,15.2-3.4,29.8-9.5,42.9-17.8-.6-6.8-.9-13.8-.9-20.8,0-31.7,5.6-60.9,16.6-86.9,4.6-10.9,10.1-21.3,16.6-31.2M1398.7,142.3c-3.3,5.5-8,10-13.6,13.1-6.1,3.4-12.7,5.8-19.6,6.9-7.5,1.3-15.1,2-22.8,2h-35.7v-82.7h37.1c7.4,0,14.7.5,22,1.5,6.7.9,13.1,2.9,19.1,5.9,5.5,2.9,10.1,7.1,13.4,12.4,3.3,5.3,4.9,12,5,20.3,0,8.2-1.7,15.1-5,20.5"/>
      </g>
      <g id="Groupe_2350">
        <path id="Tracé_34506" class="st1" d="M2066.2,130.3v159.8h-135.7V13.3h-85.2v51.2c7.7,11.2,14.2,23.2,19.5,35.8,11,25.9,16.6,55.2,16.6,86.9s-5.6,60.5-16.5,86.7c-5.3,12.8-11.9,25-19.6,36.5v53.6h296.7c5.2,0,9.4-4.2,9.4-9.4V120.9h-75.8c-5.2,0-9.4,4.2-9.4,9.4"/>
      </g>
      <g id="Groupe_2351">
        <path id="Tracé_34507" class="st1" d="M1471.2,185.9C1471.2,83.7,1551.8,0,1662.7,0s190.5,82.7,190.5,185.9-80.6,185.9-191.5,185.9-190.5-82.7-190.5-185.9M1770.5,185.9c0-61.6-45.2-113-108.8-113s-107.8,50.3-107.8,113,45.2,113,108.8,113,107.8-50.3,107.8-113"/>
      </g>
    </g>
  </g>
</svg>